<svg width="32" height="32" viewBox="0 0 32 32" fill="none" xmlns="http://www.w3.org/2000/svg">
<path d="M12 5.33333C12 4.97971 12.1405 4.64057 12.3905 4.39052C12.6406 4.14048 12.9797 4 13.3333 4H18.6667C19.0203 4 19.3594 4.14048 19.6095 4.39052C19.8595 4.64057 20 4.97971 20 5.33333V6.66667C20 7.02029 19.8595 7.35943 19.6095 7.60948C19.3594 7.85952 19.0203 8 18.6667 8H13.3333C12.9797 8 12.6406 7.85952 12.3905 7.60948C12.1405 7.35943 12 7.02029 12 6.66667V5.33333Z" stroke="#219D86" stroke-width="2" stroke-linecap="round" stroke-linejoin="round"/>
<path d="M13.3333 8V9.30667C13.3333 10.476 12.4879 11.4747 11.3333 11.6667C10.1786 11.8587 9.33325 12.8573 9.33325 14.0267V25.3333C9.33325 26.0406 9.6142 26.7189 10.1143 27.219C10.6144 27.719 11.2927 28 11.9999 28H19.9999C20.7072 28 21.3854 27.719 21.8855 27.219C22.3856 26.7189 22.6666 26.0406 22.6666 25.3333V14.0267C22.6666 12.8573 21.8213 11.8587 20.6666 11.6667C20.1079 11.5736 19.6003 11.2853 19.2341 10.8532C18.8678 10.4211 18.6668 9.87309 18.6666 9.30667V8" stroke="#219D86" stroke-width="2" stroke-linecap="round" stroke-linejoin="round"/>
<path d="M9.33325 16H22.6666" stroke="#219D86" stroke-width="2" stroke-linecap="round" stroke-linejoin="round"/>
<path d="M9.33325 24H22.6666" stroke="#219D86" stroke-width="2" stroke-linecap="round" stroke-linejoin="round"/>
<path d="M14.6667 20H17.3334" stroke="#219D86" stroke-width="2" stroke-linecap="round" stroke-linejoin="round"/>
</svg>
