<svg width="22" height="21" viewBox="0 0 22 21" fill="none" xmlns="http://www.w3.org/2000/svg">
<g clip-path="url(#clip0_1745_5408)">
<path d="M5.93799 3.96617V17.4602C5.93795 17.6103 5.97794 17.7576 6.05385 17.8871C6.12976 18.0165 6.23884 18.1234 6.36982 18.1966C6.5008 18.2698 6.64895 18.3068 6.79898 18.3036C6.94901 18.3005 7.09548 18.2574 7.22329 18.1788L18.1872 11.4317C18.31 11.3563 18.4114 11.2506 18.4817 11.1248C18.5521 10.999 18.589 10.8573 18.589 10.7132C18.589 10.5691 18.5521 10.4273 18.4817 10.3015C18.4114 10.1758 18.31 10.0701 18.1872 9.99463L7.22329 3.24762C7.09548 3.16898 6.94901 3.12588 6.79898 3.12274C6.64895 3.11961 6.5008 3.15656 6.36982 3.22979C6.23884 3.30301 6.12976 3.40986 6.05385 3.53931C5.97794 3.66876 5.93795 3.81611 5.93799 3.96617Z" fill="white"/>
</g>
<defs>
<clipPath id="clip0_1745_5408">
<rect width="20.241" height="20.241" fill="white" transform="translate(0.879395 0.594238)"/>
</clipPath>
</defs>
</svg>
