<svg width="198" height="56" viewBox="0 0 198 56" fill="none" xmlns="http://www.w3.org/2000/svg">
<rect width="198" height="56" rx="28" fill="#51CB5F"/>
<path d="M36 38C41.5228 38 46 33.5228 46 28C46 22.4771 41.5228 18 36 18C30.4771 18 26 22.4771 26 28C26 29.3789 26.2791 30.6926 26.7838 31.8877C27.0628 32.5481 27.2023 32.8784 27.2195 33.128C27.2368 33.3776 27.1633 33.6521 27.0164 34.2012L26 38L29.7988 36.9836C30.3479 36.8367 30.6224 36.7632 30.872 36.7805C31.1216 36.7977 31.4519 36.9372 32.1124 37.2162C33.3075 37.7209 34.6211 38 36 38Z" stroke="white" stroke-width="1.5" stroke-linejoin="round"/>
<path d="M32.5882 28.3773L33.4591 27.2956C33.8262 26.8397 34.2799 26.4153 34.3155 25.8083C34.3244 25.6549 34.2166 24.9666 34.0008 23.5899C33.916 23.0488 33.4109 23 32.9733 23C32.4031 23 32.1181 23 31.835 23.1293C31.4771 23.2928 31.1098 23.7523 31.0292 24.1373C30.9654 24.442 31.0128 24.6519 31.1076 25.0717C31.5102 26.8548 32.4548 28.6158 33.9195 30.0805C35.3842 31.5452 37.1452 32.4898 38.9283 32.8924C39.3481 32.9872 39.558 33.0346 39.8627 32.9708C40.2477 32.8902 40.7072 32.5229 40.8707 32.165C41 31.8819 41 31.5969 41 31.0267C41 30.5891 40.9512 30.084 40.4101 29.9992C39.0334 29.7834 38.3451 29.6756 38.1917 29.6845C37.5847 29.7201 37.1603 30.1738 36.7044 30.5409L35.6227 31.4118" stroke="white" stroke-width="1.5"/>
<path d="M59.5966 34L56.3125 22.3636H58.5795L60.6761 30.9148H60.7841L63.0227 22.3636H65.0852L67.3295 30.9205H67.4318L69.5284 22.3636H71.7955L68.5114 34H66.4318L64.1023 25.8352H64.0114L61.6761 34H59.5966ZM75.223 28.8864V34H73.1662V22.3636H75.1776V26.7557H75.2798C75.4844 26.2633 75.8007 25.875 76.2287 25.5909C76.6605 25.303 77.2098 25.1591 77.8764 25.1591C78.4825 25.1591 79.0109 25.286 79.4616 25.5398C79.9124 25.7936 80.2609 26.1648 80.5071 26.6534C80.7571 27.142 80.8821 27.7386 80.8821 28.4432V34H78.8253V28.7614C78.8253 28.1742 78.6738 27.7178 78.3707 27.392C78.0715 27.0625 77.651 26.8977 77.1094 26.8977C76.7457 26.8977 76.42 26.9773 76.1321 27.1364C75.848 27.2917 75.6245 27.517 75.4616 27.8125C75.3026 28.108 75.223 28.4659 75.223 28.8864ZM85.4901 34.1761C84.937 34.1761 84.4389 34.0777 83.9957 33.8807C83.5563 33.6799 83.2079 33.3845 82.9503 32.9943C82.6965 32.6042 82.5696 32.1231 82.5696 31.5511C82.5696 31.0587 82.6605 30.6515 82.8423 30.3295C83.0241 30.0076 83.2723 29.75 83.5866 29.5568C83.901 29.3636 84.2552 29.2178 84.6491 29.1193C85.0469 29.017 85.4579 28.9432 85.8821 28.8977C86.3935 28.8447 86.8082 28.7973 87.1264 28.7557C87.4446 28.7102 87.6757 28.642 87.8196 28.5511C87.9673 28.4564 88.0412 28.3106 88.0412 28.1136V28.0795C88.0412 27.6515 87.9143 27.3201 87.6605 27.0852C87.4067 26.8504 87.0412 26.733 86.5639 26.733C86.0601 26.733 85.6605 26.8428 85.3651 27.0625C85.0734 27.2822 84.8764 27.5417 84.7741 27.8409L82.8537 27.5682C83.0052 27.0379 83.2552 26.5947 83.6037 26.2386C83.9522 25.8788 84.3783 25.6098 84.8821 25.4318C85.3859 25.25 85.9427 25.1591 86.5526 25.1591C86.973 25.1591 87.3916 25.2083 87.8082 25.3068C88.2249 25.4053 88.6056 25.5682 88.9503 25.7955C89.295 26.0189 89.5715 26.3239 89.7798 26.7102C89.992 27.0966 90.098 27.5795 90.098 28.1591V34H88.1207V32.8011H88.0526C87.9276 33.0436 87.7514 33.2708 87.5241 33.483C87.3007 33.6913 87.0185 33.8598 86.6776 33.9886C86.3404 34.1136 85.9446 34.1761 85.4901 34.1761ZM86.0241 32.6648C86.437 32.6648 86.795 32.5833 87.098 32.4205C87.401 32.2538 87.634 32.0341 87.7969 31.7614C87.9635 31.4886 88.0469 31.1913 88.0469 30.8693V29.8409C87.9825 29.8939 87.8726 29.9432 87.7173 29.9886C87.5658 30.0341 87.3954 30.0739 87.206 30.108C87.0166 30.142 86.8291 30.1723 86.6435 30.1989C86.4579 30.2254 86.2969 30.2481 86.1605 30.267C85.8537 30.3087 85.5791 30.3769 85.3366 30.4716C85.0942 30.5663 84.9029 30.6989 84.7628 30.8693C84.6226 31.036 84.5526 31.2519 84.5526 31.517C84.5526 31.8958 84.6908 32.1818 84.9673 32.375C85.2438 32.5682 85.5961 32.6648 86.0241 32.6648ZM96.5241 25.2727V26.8636H91.5071V25.2727H96.5241ZM92.7457 23.1818H94.8026V31.375C94.8026 31.6515 94.8442 31.8636 94.9276 32.0114C95.0147 32.1553 95.1283 32.2538 95.2685 32.3068C95.4086 32.3598 95.5639 32.3864 95.7344 32.3864C95.8632 32.3864 95.9806 32.3769 96.0866 32.358C96.1965 32.339 96.2798 32.322 96.3366 32.3068L96.6832 33.9148C96.5734 33.9527 96.4162 33.9943 96.2116 34.0398C96.0109 34.0852 95.7647 34.1117 95.473 34.1193C94.9579 34.1345 94.4938 34.0568 94.081 33.8864C93.6681 33.7121 93.3404 33.4432 93.098 33.0795C92.8594 32.7159 92.742 32.2614 92.7457 31.7159V23.1818ZM105.017 27.5795L103.142 27.7841C103.089 27.5947 102.996 27.4167 102.864 27.25C102.735 27.0833 102.561 26.9489 102.341 26.8466C102.121 26.7443 101.852 26.6932 101.534 26.6932C101.106 26.6932 100.746 26.786 100.455 26.9716C100.167 27.1572 100.025 27.3977 100.028 27.6932C100.025 27.947 100.117 28.1534 100.307 28.3125C100.5 28.4716 100.818 28.6023 101.261 28.7045L102.75 29.0227C103.576 29.2008 104.189 29.483 104.591 29.8693C104.996 30.2557 105.201 30.7614 105.205 31.3864C105.201 31.9356 105.04 32.4205 104.722 32.8409C104.407 33.2576 103.97 33.5833 103.409 33.8182C102.848 34.053 102.205 34.1705 101.477 34.1705C100.409 34.1705 99.5492 33.947 98.8977 33.5C98.2462 33.0492 97.858 32.4223 97.733 31.6193L99.7386 31.4261C99.8295 31.8201 100.023 32.1174 100.318 32.3182C100.614 32.5189 100.998 32.6193 101.472 32.6193C101.96 32.6193 102.352 32.5189 102.648 32.3182C102.947 32.1174 103.097 31.8693 103.097 31.5739C103.097 31.3239 103 31.1174 102.807 30.9545C102.617 30.7917 102.322 30.6667 101.92 30.5795L100.432 30.267C99.5947 30.0928 98.9754 29.7992 98.5739 29.3864C98.1723 28.9697 97.9735 28.4432 97.9773 27.8068C97.9735 27.2689 98.1193 26.803 98.4148 26.4091C98.714 26.0114 99.1288 25.7045 99.6591 25.4886C100.193 25.2689 100.809 25.1591 101.506 25.1591C102.528 25.1591 103.333 25.3769 103.92 25.8125C104.511 26.2481 104.877 26.8371 105.017 27.5795ZM109.412 34.1761C108.859 34.1761 108.361 34.0777 107.918 33.8807C107.478 33.6799 107.13 33.3845 106.872 32.9943C106.618 32.6042 106.491 32.1231 106.491 31.5511C106.491 31.0587 106.582 30.6515 106.764 30.3295C106.946 30.0076 107.194 29.75 107.509 29.5568C107.823 29.3636 108.177 29.2178 108.571 29.1193C108.969 29.017 109.38 28.9432 109.804 28.8977C110.315 28.8447 110.73 28.7973 111.048 28.7557C111.366 28.7102 111.598 28.642 111.741 28.5511C111.889 28.4564 111.963 28.3106 111.963 28.1136V28.0795C111.963 27.6515 111.836 27.3201 111.582 27.0852C111.329 26.8504 110.963 26.733 110.486 26.733C109.982 26.733 109.582 26.8428 109.287 27.0625C108.995 27.2822 108.798 27.5417 108.696 27.8409L106.776 27.5682C106.927 27.0379 107.177 26.5947 107.526 26.2386C107.874 25.8788 108.3 25.6098 108.804 25.4318C109.308 25.25 109.865 25.1591 110.474 25.1591C110.895 25.1591 111.313 25.2083 111.73 25.3068C112.147 25.4053 112.527 25.5682 112.872 25.7955C113.217 26.0189 113.493 26.3239 113.702 26.7102C113.914 27.0966 114.02 27.5795 114.02 28.1591V34H112.043V32.8011H111.974C111.849 33.0436 111.673 33.2708 111.446 33.483C111.223 33.6913 110.94 33.8598 110.599 33.9886C110.262 34.1136 109.866 34.1761 109.412 34.1761ZM109.946 32.6648C110.359 32.6648 110.717 32.5833 111.02 32.4205C111.323 32.2538 111.556 32.0341 111.719 31.7614C111.885 31.4886 111.969 31.1913 111.969 30.8693V29.8409C111.904 29.8939 111.795 29.9432 111.639 29.9886C111.488 30.0341 111.317 30.0739 111.128 30.108C110.938 30.142 110.751 30.1723 110.565 30.1989C110.38 30.2254 110.219 30.2481 110.082 30.267C109.776 30.3087 109.501 30.3769 109.259 30.4716C109.016 30.5663 108.825 30.6989 108.685 30.8693C108.545 31.036 108.474 31.2519 108.474 31.517C108.474 31.8958 108.613 32.1818 108.889 32.375C109.166 32.5682 109.518 32.6648 109.946 32.6648ZM116.088 37.2727V25.2727H118.111V26.7159H118.23C118.336 26.5038 118.486 26.2784 118.679 26.0398C118.872 25.7973 119.134 25.5909 119.463 25.4205C119.793 25.2462 120.213 25.1591 120.724 25.1591C121.399 25.1591 122.007 25.3314 122.548 25.6761C123.094 26.017 123.526 26.5227 123.844 27.1932C124.166 27.8598 124.327 28.678 124.327 29.6477C124.327 30.6061 124.17 31.4205 123.855 32.0909C123.541 32.7614 123.113 33.2727 122.571 33.625C122.029 33.9773 121.416 34.1534 120.73 34.1534C120.23 34.1534 119.815 34.0701 119.486 33.9034C119.156 33.7367 118.891 33.536 118.69 33.3011C118.493 33.0625 118.34 32.8371 118.23 32.625H118.145V37.2727H116.088ZM118.105 29.6364C118.105 30.2008 118.185 30.6951 118.344 31.1193C118.507 31.5436 118.74 31.875 119.043 32.1136C119.349 32.3485 119.721 32.4659 120.156 32.4659C120.611 32.4659 120.991 32.3447 121.298 32.1023C121.605 31.8561 121.836 31.5208 121.991 31.0966C122.151 30.6686 122.23 30.1818 122.23 29.6364C122.23 29.0947 122.152 28.6136 121.997 28.1932C121.842 27.7727 121.611 27.4432 121.304 27.2045C120.997 26.9659 120.615 26.8466 120.156 26.8466C119.717 26.8466 119.344 26.9621 119.037 27.1932C118.73 27.4242 118.497 27.7481 118.338 28.1648C118.183 28.5814 118.105 29.072 118.105 29.6364ZM126.088 37.2727V25.2727H128.111V26.7159H128.23C128.336 26.5038 128.486 26.2784 128.679 26.0398C128.872 25.7973 129.134 25.5909 129.463 25.4205C129.793 25.2462 130.213 25.1591 130.724 25.1591C131.399 25.1591 132.007 25.3314 132.548 25.6761C133.094 26.017 133.526 26.5227 133.844 27.1932C134.166 27.8598 134.327 28.678 134.327 29.6477C134.327 30.6061 134.17 31.4205 133.855 32.0909C133.541 32.7614 133.113 33.2727 132.571 33.625C132.029 33.9773 131.416 34.1534 130.73 34.1534C130.23 34.1534 129.815 34.0701 129.486 33.9034C129.156 33.7367 128.891 33.536 128.69 33.3011C128.493 33.0625 128.34 32.8371 128.23 32.625H128.145V37.2727H126.088ZM128.105 29.6364C128.105 30.2008 128.185 30.6951 128.344 31.1193C128.507 31.5436 128.74 31.875 129.043 32.1136C129.349 32.3485 129.721 32.4659 130.156 32.4659C130.611 32.4659 130.991 32.3447 131.298 32.1023C131.605 31.8561 131.836 31.5208 131.991 31.0966C132.151 30.6686 132.23 30.1818 132.23 29.6364C132.23 29.0947 132.152 28.6136 131.997 28.1932C131.842 27.7727 131.611 27.4432 131.304 27.2045C130.997 26.9659 130.615 26.8466 130.156 26.8466C129.717 26.8466 129.344 26.9621 129.037 27.1932C128.73 27.4242 128.497 27.7481 128.338 28.1648C128.183 28.5814 128.105 29.072 128.105 29.6364ZM149.71 22.3636V34H147.835L142.352 26.0739H142.256V34H140.148V22.3636H142.034L147.511 30.2955H147.614V22.3636H149.71ZM155.723 34.1705C154.871 34.1705 154.132 33.983 153.507 33.608C152.882 33.233 152.397 32.7083 152.053 32.0341C151.712 31.3598 151.541 30.572 151.541 29.6705C151.541 28.7689 151.712 27.9792 152.053 27.3011C152.397 26.6231 152.882 26.0966 153.507 25.7216C154.132 25.3466 154.871 25.1591 155.723 25.1591C156.575 25.1591 157.314 25.3466 157.939 25.7216C158.564 26.0966 159.047 26.6231 159.388 27.3011C159.732 27.9792 159.905 28.7689 159.905 29.6705C159.905 30.572 159.732 31.3598 159.388 32.0341C159.047 32.7083 158.564 33.233 157.939 33.608C157.314 33.983 156.575 34.1705 155.723 34.1705ZM155.734 32.5227C156.196 32.5227 156.583 32.3958 156.893 32.142C157.204 31.8845 157.435 31.5398 157.587 31.108C157.742 30.6761 157.82 30.1951 157.82 29.6648C157.82 29.1307 157.742 28.6477 157.587 28.2159C157.435 27.7803 157.204 27.4337 156.893 27.1761C156.583 26.9186 156.196 26.7898 155.734 26.7898C155.261 26.7898 154.867 26.9186 154.553 27.1761C154.242 27.4337 154.009 27.7803 153.854 28.2159C153.702 28.6477 153.626 29.1307 153.626 29.6648C153.626 30.1951 153.702 30.6761 153.854 31.108C154.009 31.5398 154.242 31.8845 154.553 32.142C154.867 32.3958 155.261 32.5227 155.734 32.5227ZM163.202 34L160.736 25.2727H162.832L164.366 31.4091H164.446L166.014 25.2727H168.088L169.656 31.375H169.741L171.253 25.2727H173.355L170.884 34H168.741L167.105 28.1023H166.986L165.349 34H163.202Z" fill="white"/>
</svg>
