<svg width="56" height="56" viewBox="0 0 56 56" fill="none" xmlns="http://www.w3.org/2000/svg">
<circle cx="28" cy="28" r="28" fill="#51CB5F"/>
<path d="M28 38C33.5228 38 38 33.5228 38 28C38 22.4771 33.5228 18 28 18C22.4771 18 18 22.4771 18 28C18 29.3789 18.2791 30.6926 18.7838 31.8877C19.0628 32.5481 19.2023 32.8784 19.2195 33.128C19.2368 33.3776 19.1633 33.6521 19.0164 34.2012L18 38L21.7988 36.9836C22.3479 36.8367 22.6224 36.7632 22.872 36.7805C23.1216 36.7977 23.4519 36.9372 24.1124 37.2162C25.3075 37.7209 26.6211 38 28 38Z" stroke="white" stroke-width="1.5" stroke-linejoin="round"/>
<path d="M24.5882 28.3773L25.4591 27.2956C25.8262 26.8397 26.2799 26.4153 26.3155 25.8083C26.3244 25.6549 26.2166 24.9666 26.0008 23.5899C25.916 23.0488 25.4109 23 24.9733 23C24.4031 23 24.1181 23 23.835 23.1293C23.4771 23.2928 23.1098 23.7523 23.0292 24.1373C22.9654 24.442 23.0128 24.6519 23.1076 25.0717C23.5102 26.8548 24.4548 28.6158 25.9195 30.0805C27.3842 31.5452 29.1452 32.4898 30.9283 32.8924C31.3481 32.9872 31.558 33.0346 31.8627 32.9708C32.2477 32.8902 32.7072 32.5229 32.8707 32.165C33 31.8819 33 31.5969 33 31.0267C33 30.5891 32.9512 30.084 32.4101 29.9992C31.0334 29.7834 30.3451 29.6756 30.1917 29.6845C29.5847 29.7201 29.1603 30.1738 28.7044 30.5409L27.6227 31.4118" stroke="white" stroke-width="1.5"/>
</svg>
